/* Format_version=1, Width=64, Height=64, Depth=1, Valid_bits_per_item=16
 */
#define mongoicon_width  64
#define mongoicon_height 64
static unsigned char mongoicon_bits[] = {
    0xff, 0xff, 0xff, 0xff, 0xff, 0xff, 0xff, 0xff,
    0x01, 0x00, 0x00, 0x00, 0x00, 0x00, 0x00, 0x80,
    0x01, 0x00, 0x00, 0x00, 0x00, 0x00, 0x00, 0x80,
    0x01, 0x00, 0x00, 0x00, 0x00, 0x00, 0x00, 0x80,
    0x01, 0x00, 0x00, 0x00, 0x00, 0x00, 0x00, 0x80,
    0x01, 0x00, 0x00, 0x00, 0x00, 0x00, 0x00, 0x80,
    0x01, 0x00, 0x00, 0x00, 0x00, 0x00, 0x00, 0x80,
    0x01, 0x00, 0x00, 0x00, 0x00, 0x00, 0x00, 0x80,
    0x01, 0x00, 0x00, 0x00, 0x00, 0x00, 0x00, 0x80,
    0x01, 0x00, 0x00, 0x00, 0x00, 0x00, 0x00, 0x80,
    0x81, 0xff, 0xff, 0xff, 0xff, 0xff, 0xff, 0x81,
    0x81, 0x00, 0x02, 0x20, 0x00, 0x01, 0x10, 0x81,
    0x81, 0x00, 0x00, 0x00, 0x00, 0x00, 0x00, 0x81,
    0x81, 0x00, 0x00, 0x00, 0x00, 0x00, 0x00, 0x81,
    0x81, 0x00, 0x00, 0x00, 0x00, 0x00, 0x00, 0x81,
    0x81, 0x00, 0x00, 0xf0, 0xff, 0x0f, 0x00, 0x81,
    0xB1, 0x01, 0x00, 0x00, 0x00, 0x00, 0x00, 0x81,
    0x81, 0x00, 0x00, 0x00, 0x00, 0x00, 0x00, 0x81,
    0x81, 0x00, 0x00, 0x00, 0x00, 0x00, 0x00, 0x81,
    0x81, 0x00, 0x00, 0x00, 0x00, 0x00, 0x00, 0x81,
    0x81, 0x00, 0x00, 0x00, 0x00, 0x00, 0x00, 0x81,
    0x81, 0x00, 0x00, 0x00, 0x00, 0x00, 0x00, 0x81,
    0x81, 0x00, 0x00, 0x00, 0x00, 0x00, 0x00, 0x81,
    0x81, 0x80, 0x01, 0x00, 0x00, 0x00, 0x00, 0x81,
    0x81, 0xC0, 0x01, 0x00, 0x00, 0x00, 0x00, 0x81,
    0x81, 0x40, 0x03, 0x00, 0x00, 0x00, 0x00, 0x81,
    0x81, 0x20, 0x03, 0x00, 0x00, 0x00, 0x00, 0x81,
    0x81, 0x30, 0x01, 0x00, 0x00, 0x00, 0x00, 0x81,
    0xB1, 0x18, 0x01, 0x00, 0x00, 0x00, 0x00, 0x81,
    0x81, 0x10, 0x01, 0x00, 0x00, 0x00, 0x00, 0x81,
    0x81, 0x10, 0xf1, 0x00, 0x00, 0x00, 0x00, 0x81,
    0x81, 0x10, 0x99, 0x00, 0x00, 0x00, 0x00, 0x81,
    0x81, 0x10, 0x89, 0xf0, 0x00, 0x00, 0x00, 0x81,
    0x81, 0x10, 0x89, 0x91, 0x00, 0x00, 0x00, 0x81,
    0x81, 0x10, 0x09, 0x91, 0xE1, 0x01, 0x00, 0x81,
    0x81, 0x10, 0x19, 0x18, 0x21, 0xC3, 0x00, 0x81,
    0x81, 0x10, 0x19, 0x1B, 0x31, 0xC2, 0x01, 0x81,
    0x81, 0x10, 0x09, 0x0E, 0x13, 0x42, 0x03, 0x81,
    0x81, 0x10, 0x0f, 0x00, 0x16, 0x62, 0x02, 0x81,
    0x81, 0x18, 0x06, 0x00, 0x1C, 0x26, 0x24, 0x81,
    0xB1, 0x1D, 0x00, 0x00, 0x00, 0x3C, 0xf2, 0x81,
    0x81, 0x1f, 0x00, 0x00, 0x00, 0x00, 0x1A, 0x81,
    0x81, 0x00, 0x00, 0x00, 0x00, 0x00, 0x0E, 0x81,
    0x81, 0x00, 0x00, 0x00, 0x00, 0x00, 0x00, 0x81,
    0x81, 0x00, 0x00, 0x00, 0x00, 0x00, 0x00, 0x81,
    0x81, 0x00, 0x00, 0x00, 0x00, 0x00, 0x00, 0x81,
    0x81, 0x00, 0x00, 0x00, 0x00, 0x00, 0x00, 0x81,
    0x81, 0x00, 0x00, 0x00, 0x00, 0x00, 0x00, 0x81,
    0x81, 0x00, 0x00, 0x00, 0x00, 0x00, 0x00, 0x81,
    0x81, 0x00, 0x00, 0x00, 0x00, 0x00, 0x00, 0x81,
    0x81, 0x00, 0x00, 0x00, 0x00, 0x00, 0x00, 0x81,
    0x81, 0x00, 0x00, 0x00, 0x00, 0x00, 0x00, 0x81,
    0xB1, 0x01, 0x00, 0x00, 0x00, 0x00, 0x00, 0x81,
    0x81, 0x00, 0x00, 0x00, 0x00, 0x00, 0x00, 0x81,
    0x81, 0x00, 0x02, 0x10, 0x40, 0x00, 0x04, 0x81,
    0x81, 0xff, 0xff, 0xff, 0xff, 0xff, 0xff, 0x81,
    0x01, 0x00, 0x00, 0x00, 0x00, 0x00, 0x00, 0x80,
    0x01, 0x00, 0x00, 0x00, 0x00, 0x00, 0x00, 0x80,
    0x81, 0x01, 0x07, 0x38, 0xE0, 0x00, 0x0E, 0x80,
    0x01, 0x00, 0x00, 0x00, 0x00, 0x00, 0x00, 0x80,
    0x01, 0x00, 0x00, 0x00, 0x00, 0x00, 0x00, 0x80,
    0x01, 0x00, 0x00, 0x00, 0x00, 0x00, 0x00, 0x80,
    0x01, 0x00, 0x00, 0x00, 0x00, 0x00, 0x00, 0x80,
    0xff, 0xff, 0xff, 0xff, 0xff, 0xff, 0xff, 0xff,
};
